<?xml version="1.0" encoding="iso-8859-1"?>
<!-- Generator: Adobe Illustrator 19.0.0, SVG Export Plug-In . SVG Version: 6.00 Build 0)  -->
<svg version="1.1" id="Capa_1" xmlns="http://www.w3.org/2000/svg" xmlns:xlink="http://www.w3.org/1999/xlink" x="0px" y="0px"
	 viewBox="0 0 438.146 438.146" style="enable-background:new 0 0 438.146 438.146;" xml:space="preserve">
<g>
	<g>
		<g>
			<path d="M276.4,275.873c0.8,2.4,2,4.4,3.2,6c1.6,1.6,3.2,2.8,5.2,4c2,0.8,4,1.2,6.4,1.2c2.4,0,4.4-0.4,6.4-1.2
				c2-0.8,3.6-2,5.2-3.6c1.6-1.6,2.8-3.6,3.2-6c0.8-2,0.8-4.4,0.8-7.2v-10c2.4,0,4.4-0.4,6-0.8c2.4-0.4,4-1.2,6-2.4
				c3.6-2.4,5.6-6.4,5.6-11.6c0-2.8-0.4-5.2-1.6-7.2c-1.2-2.4-3.2-4.4-5.6-5.2c-1.6-0.8-3.6-1.2-6-1.6c-1.6-0.4-2.8-0.4-4.8-0.4
				v-58.8c0-6-1.6-11.2-4.4-14.4c-3.2-3.6-7.6-5.6-13.6-5.6c-2,0-4,0.4-5.6,1.2c-1.6,0.8-3.2,1.6-4.8,3.2c-1.2,0.8-2.4,2.4-3.6,4
				c-1.2,1.6-2.8,3.2-4,5.2l-42.8,58.4c-0.8,1.2-1.2,1.6-1.6,2c0,0.4-0.4,0.8-1.2,1.6c-0.4,0.8-0.8,1.2-1.6,2
				c-0.4,0.8-0.8,1.2-1.2,2c-0.4,0.8-0.8,1.6-1.2,2.4c-0.8,0.8-1.2,1.6-1.2,2c-0.4,0.8-0.4,1.6-0.8,2.4c0,0.8-0.4,1.6-0.4,2.4
				c0,2.8,0.4,5.2,1.2,7.6c0.8,2.4,2.4,4.4,4.4,6.4c3.6,3.2,8.8,5.2,15.6,5.2h36v9.6C275.6,271.073,276,273.473,276.4,275.873z
				 M257.2,229.473l18.8-25.6v25.6H257.2z"/>
			<path d="M170.4,200.673c-0.4,0.8-1.2,2.4-2.4,3.6c-0.8,1.6-2,2.8-3.6,4.4c-1.2,1.6-2.8,2.8-4.4,4.4c-1.6,1.6-3.6,2.8-5.6,4.4
				c-1.2,0.8-3.2,2.4-5.6,4.4c-2,2-4.8,4-7.6,6.8c-2.8,2.8-6,5.6-9.6,9.2c-3.2,3.2-6.8,6.8-10.4,10.8c-1.2,1.2-2.4,2.8-3.2,4
				c-0.8,1.6-2,3.2-2.8,5.2c-0.8,2-1.6,3.6-2,5.2c-0.4,2-0.8,3.6-0.8,4.8c0,2.4,0.4,4.4,1.2,6.4s2,4,4,5.6c1.6,1.6,4,3.2,6.4,4
				c2.4,0.8,4.8,1.2,7.2,1.2H192c2.4,0,4.8-0.4,6.4-1.2c2.4-0.8,4-2,5.6-3.6c1.2-1.6,2.4-3.2,3.2-4.8c0.8-2,1.2-3.6,1.2-5.6
				c0-2.4-0.4-4.4-1.2-6.4s-2.4-3.6-4-5.2c-1.6-1.2-3.6-2.4-6-3.2c-2-0.4-4.4-0.8-7.2-0.8h-31.2c0.8-0.8,1.6-1.6,2.4-2.4
				c2.8-2.8,6.4-5.6,10.4-8.8c3.6-3.2,7.2-6,10.4-8.8s5.6-4.8,7.6-6.4c2-1.6,4-4,6-6.4c2-2.4,3.6-5.2,5.6-8c2-3.2,3.6-6.8,4.4-10.4
				c0.8-3.6,1.6-7.2,1.6-11.2c0-2.4-0.4-4.8-0.8-7.6c-0.4-2.4-1.2-4.8-2-7.2c-0.8-2.4-2-4.4-3.6-6.8c-1.2-2-2.8-4-4.4-6
				c-1.6-1.6-3.6-3.6-5.6-4.8c-2-1.6-4-2.8-6.4-3.6c-3.2-1.6-7.2-2.4-11.2-3.2c-4-0.8-8.4-1.2-12.8-1.2c-3.6,0-7.2,0.4-10.8,0.8
				c-3.6,0.4-6.8,1.6-9.6,2.8c-2.8,1.2-5.6,2.4-8,4c-2.4,1.6-4.8,3.2-6.8,5.2s-3.6,4-5.2,6c-1.6,2.4-2.8,4.4-3.6,6.8
				c-0.8,2.4-1.6,4.8-2.4,6.8c-0.4,2.4-0.8,4.8-0.8,7.2c0,2.4,0.4,4.4,1.2,6c0.8,2,2,3.6,3.2,5.2c1.6,1.6,3.2,2.4,4.8,3.2
				c2,0.8,3.6,1.2,6,1.2c2.4,0,4.4-0.4,6.4-1.2s3.6-2,5.2-4c1.2-1.2,2-2.8,2.8-4.8c0.8-1.6,1.6-3.6,2.4-5.6c0.8-1.6,1.2-3.2,1.6-4
				l0,0c1.6-2.4,3.2-4,5.2-5.2s4.4-1.6,6.8-1.6c1.2,0,2.4,0,3.6,0.4c1.2,0.4,2,0.8,3.2,1.2c1.2,0.4,2,1.2,2.8,2
				c0.8,0.8,1.6,1.6,2,2.4c0.4,0.8,0.8,2,1.2,3.2c0.4,1.2,0.4,2.4,0.4,3.6c0,1.2,0,2.4-0.4,3.6
				C171.2,197.873,170.8,199.473,170.4,200.673z"/>
			<path d="M14.8,233.873c8,0,14.8-6.4,14.8-14.8c0-51.6,20.8-98,54.8-132c33.6-33.6,80.4-54.8,132-54.8c38,0,74,11.6,104,31.6
				c20,13.6,37.2,30.8,50.8,51.2l-16.8-6.4c-7.6-2.8-16,0.8-18.8,8.4c-2.8,7.6,0.8,16,8.4,18.8l52.8,20.8c3.6,1.6,7.6,1.6,11.2,0
				c4-1.6,6.8-4.8,8.4-8.8l20.8-52.8c2.8-7.6-0.8-16-8.4-18.8c-7.6-2.8-16,0.8-18.8,8.4l-8.8,22.8c-16.4-27.2-38.4-50-64.4-67.2
				c-34.8-23.6-76.4-36.8-120.4-36.8c-59.6,0-113.6,24-152.4,63.2c-39.6,38.8-64,92.8-64,152.4C0,227.073,6.8,233.873,14.8,233.873z
				"/>
			<path d="M422.8,204.273c-8,0-14.8,6.4-14.8,14.8c0,51.6-20.8,98-54.8,132c-33.6,33.6-80.4,54.8-132,54.8c-38,0-74-11.6-104-31.6
				c-20-13.6-37.2-30.8-50.8-51.2l16.8,6.4c7.6,2.8,16-0.8,18.8-8.4c2.8-7.6-0.8-16-8.4-18.8l-52.8-20.8c-3.6-1.6-7.6-1.6-11.2,0
				c-4,1.6-6.8,4.8-8.4,8.8l-20,52.8c-2.8,7.6,0.8,16,8.4,18.8c7.6,2.8,16-0.8,18.8-8.4l8.8-22.8c16.4,27.2,38.4,50,64.4,67.2
				c34.8,23.6,76.4,36.8,120.4,36.8c59.6,0,113.6-24,152.4-63.2c39.2-39.2,63.2-92.8,63.2-152.4
				C437.6,211.073,430.8,204.273,422.8,204.273z"/>
		</g>
	</g>
</g>
<g>
</g>
<g>
</g>
<g>
</g>
<g>
</g>
<g>
</g>
<g>
</g>
<g>
</g>
<g>
</g>
<g>
</g>
<g>
</g>
<g>
</g>
<g>
</g>
<g>
</g>
<g>
</g>
<g>
</g>
</svg>
