<?xml version="1.0" encoding="iso-8859-1"?>
<!-- Generator: Adobe Illustrator 19.0.0, SVG Export Plug-In . SVG Version: 6.00 Build 0)  -->
<svg version="1.1" id="Capa_1" xmlns="http://www.w3.org/2000/svg" xmlns:xlink="http://www.w3.org/1999/xlink" x="0px" y="0px"
	 viewBox="0 0 437.6 437.6" style="enable-background:new 0 0 437.6 437.6;" xml:space="preserve">
<g>
	<g>
		<g>
			<path d="M410.4,322.4V145.2h0c0-10.4-8.4-19.2-19.2-19.2H190v21.2h185.6c9.2,0,17.2,7.6,17.2,17.2v158h-294V202H81.2v120.4H54
				c0,27.2,22.4,49.6,49.6,49.6H388c27.2,0,49.6-22.4,49.6-49.6H410.4z M269.6,355.2h-48c-4.4,0-8-3.6-8-8c0-4.4,3.6-8,8-8H270
				c4,0,7.6,3.6,7.6,8C277.6,351.6,274,355.2,269.6,355.2z"/>
			<path d="M134.4,205.6c0.8,0.8,2,1.6,3.6,1.6c2.8,0,4.8-2,4.8-4.8v-18.8h13.6c8.4,0,15.2-6.8,15.2-15.2V80.8
				c0-8.4-6.8-15.2-15.2-15.2H15.2C6.8,65.6,0,72.4,0,80.8v87.6c0,8.4,6.8,15.2,15.2,15.2h97.2L134.4,205.6z M135.6,112
				c8,0,14.4,6.4,14.4,14.4s-6.4,14.4-14.4,14.4s-14.4-6.4-14.4-14.4C121.6,118.4,128,112,135.6,112z M36,140.8
				c-8,0-14.4-6.4-14.4-14.4S28,112,36,112s14.4,6.4,14.4,14.4S44,140.8,36,140.8z M86,140.8c-8,0-14.4-6.4-14.4-14.4S78,112,86,112
				s14.4,6.4,14.4,14.4S94,140.8,86,140.8z"/>
		</g>
	</g>
</g>
<g>
</g>
<g>
</g>
<g>
</g>
<g>
</g>
<g>
</g>
<g>
</g>
<g>
</g>
<g>
</g>
<g>
</g>
<g>
</g>
<g>
</g>
<g>
</g>
<g>
</g>
<g>
</g>
<g>
</g>
</svg>
