<?xml version="1.0" encoding="iso-8859-1"?>
<!-- Generator: Adobe Illustrator 19.0.0, SVG Export Plug-In . SVG Version: 6.00 Build 0)  -->
<svg version="1.1" id="Capa_1" xmlns="http://www.w3.org/2000/svg" xmlns:xlink="http://www.w3.org/1999/xlink" x="0px" y="0px"
	 viewBox="0 0 439.2 439.2" style="enable-background:new 0 0 439.2 439.2;" xml:space="preserve">
<g>
	<g>
		<g>
			<path d="M372.4,129.8H154.8h-9.2L126.4,107C116,94.6,118.8,94.6,100,94.6H26.4C12,94.6,0,106.6,0,121v239.6
				C0,375,12,387,26.4,387h346c14.8-0.4,26.4-12,26.4-26.8v-204C398.8,141.8,386.8,129.8,372.4,129.8z M281.6,269.8
				c0,5.2-4,9.2-9.2,9.2h-18c-0.8,2.8-2,5.6-3.2,8l12.8,12.8c3.6,3.6,3.6,9.2,0,12.8l-12.8,12.8c-3.6,3.6-9.2,3.6-12.8,0l-12.8-12.8
				c-2.4,1.2-5.2,2.4-8,3.2v18c0,5.2-4,9.2-9.2,9.2h-18c-5.2,0-9.2-4-9.2-9.2v-18c-2.8-0.8-5.6-2-8-3.2l-12.8,12.8
				c-3.6,3.6-9.2,3.6-12.8,0l-12.8-12.8c-3.6-3.6-3.6-9.2,0-12.8l12.8-12.8c-1.2-2.4-2.4-5.2-3.2-8h-18c-5.2,0-9.2-4-9.2-9.2v-18
				c0-5.2,4-9.2,9.2-9.2h18c0.8-2.8,2-5.6,3.2-8l-12.8-12.8c-3.6-3.6-3.6-9.2,0-12.8l12.8-12.8c3.6-3.6,9.2-3.6,12.8,0l12.8,12.8
				c2.4-1.2,5.2-2.4,8-3.2v-18.4c0-5.2,4-9.2,9.2-9.2h18c5.2,0,9.2,4,9.2,9.2v18c2.8,0.8,5.6,2,8,3.2l12.8-12.8
				c3.6-3.6,9.2-3.6,12.8,0l12.8,12.8c3.6,3.6,3.6,9.2,0,12.8l-12.8,12.8c1.2,2.4,2.4,5.2,3.2,8h18c5.2,0,9.2,4,9.2,9.2V269.8z"/>
			<path d="M412.8,87.4H195.2H186l-19.2-22.8c-10.4-12.4-7.6-12.4-26.4-12.4H66.8c-13.6,0-25.2,10.4-26.4,24h60
				c8.8,0,17.6-0.4,25.6,4c6.4,3.6,10.4,9.6,14.8,14.8l13.6,16.4h218c24.8,0,44.8,20,44.8,44.8v188c12.4-2,22-13.2,22-26V113.8
				C439.2,99,427.2,87.4,412.8,87.4z"/>
			<circle cx="199.6" cy="260.6" r="32.4"/>
		</g>
	</g>
</g>
<g>
</g>
<g>
</g>
<g>
</g>
<g>
</g>
<g>
</g>
<g>
</g>
<g>
</g>
<g>
</g>
<g>
</g>
<g>
</g>
<g>
</g>
<g>
</g>
<g>
</g>
<g>
</g>
<g>
</g>
</svg>
