<?xml version="1.0" encoding="iso-8859-1"?>
<!-- Generator: Adobe Illustrator 19.0.0, SVG Export Plug-In . SVG Version: 6.00 Build 0)  -->
<svg version="1.1" id="Capa_1" xmlns="http://www.w3.org/2000/svg" xmlns:xlink="http://www.w3.org/1999/xlink" x="0px" y="0px"
	 viewBox="0 0 437.212 437.212" style="enable-background:new 0 0 437.212 437.212;" xml:space="preserve">
<g>
	<g>
		<g>
			<path d="M404.412,41.206h-300c-18,0-32.4,14.8-32.4,32.4v186.4c0,18,14.8,32.4,32.4,32.4h206.8l47.2,47.2c2,2,4.4,3.2,7.2,3.2
				c5.6,0,10.4-4.4,10.4-10.4v-40h28.8c18,0,32.4-14.8,32.4-32.4v-186.4C437.212,56.006,422.412,41.206,404.412,41.206z
				 M337.212,177.206L337.212,177.206c0,5.2-4,9.2-9.2,9.2h-18c-0.8,2.8-2,5.6-3.2,8l12.8,12.8c3.6,3.6,3.6,9.6,0,13.2l-12.8,12.8
				c-3.6,3.6-9.6,3.6-13.2,0l-12.8-12.8c-2.4,1.2-5.2,2.4-8,3.2v18c0,5.2-4,9.2-9.2,9.2h-18c-5.2,0-9.2-4-9.2-9.2v-18
				c-2.8-0.8-5.6-2-8-3.2l-12.8,12.8c-3.6,3.6-9.6,3.6-13.2,0l-12.8-12.8c-3.6-3.6-3.6-9.6,0-13.2l12.8-12.8c-1.2-2.4-2.4-5.2-3.2-8
				h-18c-5.2,0-9.2-4-9.2-9.2v-18c0-5.2,4-9.2,9.2-9.2h18c0.8-2.8,2-5.6,3.2-8l-12.8-12.8c-3.6-3.6-3.6-9.6,0-13.2l12.8-12.8
				c3.6-3.6,9.6-3.6,13.2,0l12.8,12.8c2.4-1.2,5.2-2.4,8-3.2v-18.4c0-5.2,4-9.2,9.2-9.2h18c5.2,0,9.2,4,9.2,9.2v18
				c2.8,0.8,5.6,2,8,3.2l12.8-12.8c3.6-3.6,9.6-3.6,13.2,0l12.8,12.8c3.6,3.6,3.6,9.6,0,13.2l-12.8,12.8c1.2,2.4,2.4,5.2,3.2,8h18
				c5.2,0,9.2,4,9.2,9.2V177.206z"/>
			<path d="M54.012,260.806v-63.6h-32.8c-11.6,0-21.2,9.6-21.2,21.2v122.4c-0.4,12.4,9.2,22,21.2,22h18.8v26.4
				c0,3.6,3.2,6.8,6.8,6.8c2,0,3.6-0.8,4.8-2l30.8-30.8h136c11.6,0,21.2-9.6,21.2-21.2v-30.4h-134.8
				C76.812,311.606,54.012,288.806,54.012,260.806z"/>
			<circle cx="254.812" cy="168.006" r="32.4"/>
		</g>
	</g>
</g>
<g>
</g>
<g>
</g>
<g>
</g>
<g>
</g>
<g>
</g>
<g>
</g>
<g>
</g>
<g>
</g>
<g>
</g>
<g>
</g>
<g>
</g>
<g>
</g>
<g>
</g>
<g>
</g>
<g>
</g>
</svg>
