<?xml version="1.0" encoding="iso-8859-1"?>
<!-- Generator: Adobe Illustrator 19.0.0, SVG Export Plug-In . SVG Version: 6.00 Build 0)  -->
<svg version="1.1" id="Capa_1" xmlns="http://www.w3.org/2000/svg" xmlns:xlink="http://www.w3.org/1999/xlink" x="0px" y="0px"
	 viewBox="0 0 437.6 437.6" style="enable-background:new 0 0 437.6 437.6;" xml:space="preserve">
<g>
	<g>
		<g>
			<path d="M358,36h-63.2v33.6H340c11.6,0,21.2,9.6,21.2,21.2v276.8c0,12-9.6,21.6-21.2,21.6H197.6c-11.6,0-21.2-9.6-21.2-21.2
				V172.4h-22.8v238.4c0,14.8,12,26.8,26.8,26.8H358c14.8,0,26.8-12,26.8-26.8v-348C384.8,48,372.8,36,358,36z M286,422h-34.4
				c-4.4,0-8.4-3.6-8.4-8.4c0-4.4,3.6-8.4,8.4-8.4H286c4.4,0,8.4,3.6,8.4,8.4C294.4,418,290.4,422,286,422z"/>
			<path d="M228,182.8c1.2,1.2,2.8,2,4.4,2c3.6,0,6.4-2.8,6.4-6.4V154h17.6c10.8,0,20-8.8,20-20V20c0-10.8-8.8-20-20-20H72.8
				c-11.2,0-20,9.2-20,20v114c0,10.8,8.8,20,20,20h126.4L228,182.8z M229.6,61.6c10,0,18.4,8.4,18.4,18.4s-8.4,18.4-18.4,18.4
				S211.2,90,211.2,80S219.2,61.6,229.6,61.6z M100.8,98.4c-10,0-18.4-8.4-18.4-18.4s8.4-18.4,18.4-18.4S119.2,70,119.2,80
				S110.8,98.4,100.8,98.4z M165.2,98.4c-10,0-18.4-8.4-18.4-18.4s8.4-18.4,18.4-18.4S183.6,70,183.6,80S175.2,98.4,165.2,98.4z"/>
		</g>
	</g>
</g>
<g>
</g>
<g>
</g>
<g>
</g>
<g>
</g>
<g>
</g>
<g>
</g>
<g>
</g>
<g>
</g>
<g>
</g>
<g>
</g>
<g>
</g>
<g>
</g>
<g>
</g>
<g>
</g>
<g>
</g>
</svg>
